<?xml version="1.0" encoding="utf-8"?>
<!-- Generator: Adobe Illustrator 25.0.1, SVG Export Plug-In . SVG Version: 6.00 Build 0)  -->
<svg version="1.1" id="Bold" xmlns="http://www.w3.org/2000/svg" xmlns:xlink="http://www.w3.org/1999/xlink" x="0px" y="0px"
	 viewBox="0 0 169.1 169.1" style="enable-background:new 0 0 169.1 169.1;" xml:space="preserve">
<style type="text/css">
	.st0{fill:#016BFF;}
	.st1{fill:#FFFFFF;}
</style>
<g>
	<path class="st0" d="M128.9,169.1H40.2C18,169.1,0,151.1,0,128.9V40.2C0,18,18,0,40.2,0h88.7c22.2,0,40.2,18,40.2,40.2v88.7
		C169.1,151.1,151.1,169.1,128.9,169.1z"/>
	<path class="st1" d="M107.1,84.4H92.5v53.3h-22V84.4H60V65.7h10.5V53.6c0-8.7,4.1-22.2,22.2-22.2l16.3,0.1v18.2H97.2
		c-1.9,0-4.7,1-4.7,5.1v11H109L107.1,84.4z"/>
</g>
</svg>
