<svg width="16" height="16" viewBox="0 0 16 16" fill="none" xmlns="http://www.w3.org/2000/svg">
<path fill-rule="evenodd" clip-rule="evenodd" d="M0 8C0 3.58172 3.58172 0 8 0C12.4183 0 16 3.58172 16 8C16 12.4183 12.4183 16 8 16C3.58172 16 0 12.4183 0 8ZM6.53602 7.77143V8.64H7.97757C7.91948 9.01276 7.54184 9.73295 6.53602 9.73295C5.66818 9.73295 4.96012 9.01638 4.96012 8.13333C4.96012 7.25029 5.66818 6.53371 6.53602 6.53371C7.02985 6.53371 7.36028 6.74362 7.5491 6.92457L8.23901 6.26229C7.79602 5.84971 7.2223 5.6 6.53602 5.6C5.13078 5.6 3.99424 6.73276 3.99424 8.13333C3.99424 9.5339 5.13078 10.6667 6.53602 10.6667C8.00299 10.6667 8.97613 9.63886 8.97613 8.19124C8.97613 8.02476 8.95798 7.8981 8.93619 7.77143H6.53602ZM11.2565 7.7714H11.9827V8.49521H11.2565V9.21902H10.5302V8.49521H9.804V7.7714H10.5302V7.04759H11.2565V7.7714Z" fill="#F4F4F4"/>
</svg>
