<svg class= "Logo" version="1.1" xmlns="http://www.w3.org/2000/svg" xmlns:xlink="http://www.w3.org/1999/xlink" x="0px" y="0px"
	 viewBox="0 0 97.814 97.063" style="enable-background:new 0 0 97.814 97.063;" xml:space="preserve">
<g id="The_x5F_Chase_x5F_Manhattan_x5F_Bank">
	<path class="Logo" style="fill-rule:evenodd;clip-rule:evenodd;" d="M31.534,0.148c11.888,0.129,20.426,0,32.226,0c1.625,0,3.551-0.332,4.912,0
		c1.078,0.264,2.74,2.468,3.714,3.475C80.6,12.116,89.026,20.218,97.064,28.66c-21.246-0.112-47.055,0.218-65.77-0.12
		c-0.103-8.506-0.225-18.47,0-28.033C31.289,0.302,31.384,0.196,31.534,0.148z"/>
	<path class="Logo" style="fill-rule:evenodd;clip-rule:evenodd;" d="M28.778,66.037c-8.482-0.125-19.476,0.192-28.392-0.119
		c-0.203-8.306-0.12-18.252-0.12-27.674c0-2.727-0.6-6.873,0-9.345c0.19-0.783,2.35-2.674,3.355-3.714
		c8.015-8.298,17.314-16.974,25.038-24.798c0.102-0.023,0.112,0.046,0.119,0.119C28.671,24.725,29.012,43.838,28.778,66.037z"/>
	<path class="Logo" style="fill-rule:evenodd;clip-rule:evenodd;" d="M69.39,30.937c9.529,0.098,18.895-0.152,28.033,0.119
		c0.106,9.001,0.204,17.434,0.12,27.314c-0.022,2.579,0.62,6.92,0,9.584c-0.274,1.178-2.454,2.654-3.475,3.714
		c-8.182,8.494-16.734,16.807-24.918,24.679c-0.192-18.602-0.095-42.894-0.12-65.051C69.098,31.123,69.218,31.003,69.39,30.937z"/>
	<path class="Logo" style="fill-rule:evenodd;clip-rule:evenodd;" d="M66.515,68.193c0.309,9.83,0.309,19.073,0,28.513
		c-10.081,0.189-19.016-0.092-28.272,0.12c-2.423,0.055-6.684,0.57-9.105-0.12c-0.847-0.241-2.667-2.308-3.713-3.354
		c-8.051-8.05-16.983-16.943-24.56-24.679c-0.079-0.081-0.112-0.206-0.119-0.359c0.097-0.023,0.119-0.12,0.239-0.12
		C23.242,68.233,44.12,68.237,66.515,68.193z"/>
</g>
<g>
</g>
</svg>